<?xml version="1.0" standalone="no"?>
<!DOCTYPE svg PUBLIC "-//W3C//DTD SVG 20010904//EN"
 "http://www.w3.org/TR/2001/REC-SVG-20010904/DTD/svg10.dtd">
<svg version="1.0" xmlns="http://www.w3.org/2000/svg"
 width="490.000000pt" height="102.000000pt" viewBox="0 0 490.000000 102.000000"
 preserveAspectRatio="xMidYMid meet">

<g transform="translate(0.000000,102.000000) scale(0.100000,-0.100000)"
fill="#000000" stroke="none">
<path d="M232 968 c-9 -9 -12 -116 -12 -420 l0 -408 26 -10 c14 -6 85 -10 159
-10 142 0 165 7 165 50 0 32 -33 40 -160 40 l-121 0 3 128 3 127 102 3 c88 2
103 5 108 21 13 43 -1 50 -108 53 l-102 3 0 175 0 175 132 3 133 3 6 26 c12
46 -12 53 -176 53 -100 0 -150 -4 -158 -12z"/>
<path d="M1066 964 c-9 -8 -16 -21 -16 -27 1 -28 19 -36 88 -39 l72 -3 1 -353
c0 -193 4 -364 8 -380 10 -37 55 -44 65 -10 3 13 6 186 6 385 l0 362 78 3 c71
3 77 5 80 26 7 47 -13 52 -197 52 -141 0 -172 -3 -185 -16z"/>
<path d="M1970 969 c0 -7 -16 -43 -36 -81 -19 -39 -34 -71 -32 -73 2 -1 36 -6
76 -9 l72 -7 -5 43 c-4 24 -11 64 -17 91 -8 40 -13 47 -34 47 -13 0 -24 -5
-24 -11z"/>
<path d="M2080 955 c0 -23 20 -127 25 -133 6 -7 45 24 45 36 0 13 -59 122 -66
122 -2 0 -4 -11 -4 -25z"/>
<path d="M2612 960 c-9 -15 -12 -118 -12 -415 l0 -395 25 -16 c20 -13 43 -16
115 -12 82 4 93 7 127 35 21 16 44 43 52 59 8 16 18 37 23 46 11 23 10 193 -1
216 -4 9 -16 34 -26 55 -10 20 -22 37 -27 37 -4 0 -8 11 -8 25 0 14 5 25 10
25 6 0 10 9 10 19 0 11 5 23 10 26 15 9 12 158 -4 196 -38 92 -84 119 -198
119 -72 0 -85 -3 -96 -20z m201 -90 c44 -52 47 -152 7 -218 -19 -31 -22 -32
-85 -32 l-65 0 0 133 c0 74 3 137 7 140 3 4 30 7 59 7 46 0 55 -4 77 -30z m19
-352 c36 -35 48 -72 48 -148 0 -68 -23 -132 -54 -152 -6 -4 -44 -8 -83 -8
l-73 0 0 158 c0 87 3 162 7 165 3 4 35 7 69 7 52 0 67 -4 86 -22z"/>
<path d="M3211 961 c-6 -11 -17 -61 -25 -113 -14 -88 -27 -158 -47 -258 -8
-41 -13 -69 -39 -210 -4 -25 -14 -74 -21 -110 -7 -36 -13 -83 -13 -105 -1 -36
2 -40 25 -43 22 -3 27 2 37 36 7 22 12 48 12 59 0 11 5 34 11 50 10 30 10 31
88 31 l77 1 12 -33 c7 -18 12 -44 12 -58 0 -14 5 -39 11 -57 9 -27 16 -32 38
-29 24 3 26 6 25 48 -1 25 -5 59 -8 75 -4 17 -11 53 -16 80 -6 28 -17 86 -26
130 -18 84 -25 128 -43 235 -15 93 -51 273 -57 282 -10 15 -43 8 -53 -11z m67
-412 c18 -91 32 -168 32 -172 0 -4 -31 -7 -69 -7 l-69 0 5 43 c12 108 55 319
63 309 4 -4 21 -82 38 -173z"/>
<path d="M3527 962 c-15 -17 -17 -60 -17 -410 0 -471 -10 -438 129 -430 126 7
172 34 204 118 14 39 17 84 17 309 0 171 -4 277 -12 302 -26 89 -98 129 -228
129 -62 0 -80 -4 -93 -18z m203 -77 c57 -29 60 -48 60 -335 0 -270 -2 -283
-44 -322 -15 -14 -36 -18 -93 -18 l-73 0 0 338 c0 186 3 342 7 345 12 13 114
7 143 -8z"/>
<path d="M3957 962 c-15 -17 -17 -55 -17 -341 0 -388 5 -418 84 -479 22 -17
42 -22 89 -22 77 0 119 25 152 91 l25 48 0 348 c0 342 0 348 -21 361 -16 10
-24 10 -35 1 -12 -9 -14 -69 -14 -346 0 -368 -3 -388 -59 -417 -37 -20 -54
-20 -90 -1 -55 28 -61 70 -61 430 0 236 -3 324 -12 333 -16 16 -22 15 -41 -6z"/>
<path d="M4413 965 c-10 -11 -13 -108 -13 -414 l0 -400 22 -15 c18 -13 52 -16
160 -16 144 0 168 7 168 49 0 35 -20 41 -152 41 l-128 0 0 375 c0 360 -1 375
-19 385 -24 12 -23 12 -38 -5z"/>
<path d="M2152 788 c-33 -23 -33 -24 -28 -83 4 -33 9 -80 14 -104 6 -39 9 -43
22 -30 8 8 38 29 66 48 48 32 58 51 35 71 -4 3 -15 21 -25 42 -11 20 -27 46
-35 57 l-16 21 -33 -22z"/>
<path d="M1829 671 c-26 -50 -44 -93 -40 -95 3 -2 53 -6 111 -10 58 -4 125 -9
149 -13 l43 -6 -6 54 c-4 30 -12 75 -17 102 l-11 47 -56 0 c-32 0 -73 3 -92 6
l-35 6 -46 -91z"/>
<path d="M2270 585 c-7 -9 -37 -30 -67 -48 -44 -26 -53 -36 -48 -52 3 -11 9
-49 12 -83 3 -36 11 -66 18 -68 7 -3 32 9 56 26 24 17 68 46 97 66 28 20 52
39 52 42 0 4 -9 21 -20 37 -12 17 -28 45 -36 63 -18 35 -44 42 -64 17z"/>
<path d="M689 541 c-20 -16 -22 -23 -13 -38 10 -16 28 -18 142 -21 125 -2 131
-2 137 18 4 14 1 28 -11 41 -15 16 -31 19 -124 19 -92 0 -111 -3 -131 -19z"/>
<path d="M1747 496 c-9 -17 -29 -59 -45 -93 l-30 -62 67 -6 c36 -3 104 -10
151 -15 47 -5 123 -12 169 -15 l84 -7 -7 24 c-4 13 -11 50 -16 84 -15 97 -6
91 -143 99 -67 4 -143 10 -168 14 -45 7 -47 6 -62 -23z"/>
<path d="M2407 412 c-4 -5 -33 -27 -64 -48 -32 -21 -64 -43 -70 -50 -7 -7 -29
-22 -49 -34 -30 -19 -35 -27 -30 -49 4 -14 11 -56 17 -93 6 -38 16 -68 21 -68
8 0 93 55 108 70 3 3 32 23 65 45 33 22 66 46 73 52 7 7 18 13 23 13 16 0 10
17 -25 77 -48 81 -62 98 -69 85z"/>
<path d="M1641 277 c-6 -6 -11 -16 -11 -21 0 -6 -16 -42 -35 -80 -19 -38 -33
-71 -32 -73 4 -3 122 -15 387 -38 91 -8 178 -18 194 -21 l29 -7 -7 59 c-17
145 -17 144 -40 149 -11 2 -50 6 -86 9 -72 5 -294 24 -352 30 -20 2 -41 -1
-47 -7z"/>
</g>
</svg>
